<?xml version="1.0" encoding="utf-8"?>
<!-- Generator: Adobe Illustrator 27.5.0, SVG Export Plug-In . SVG Version: 6.00 Build 0)  -->
<svg version="1.1" id="レイヤー_1" xmlns="http://www.w3.org/2000/svg" xmlns:xlink="http://www.w3.org/1999/xlink" x="0px"
	 y="0px" viewBox="0 0 1034 1080" style="enable-background:new 0 0 1034 1080;" xml:space="preserve">
<g>
	<path d="M491.54,845.23c-46.19,0-92.33,0-138.63,0c0,5.31,0,10.26,0,15.46c50.09,0,100.07,0,150.28,0c0,25.78,0,51.32,0,77.22
		c-50.01,0-100.06,0-150.37,0c0,18.17,0,35.97,0,53.98c-38.67,0-77.07,0-115.85,0c0-17.82,0-35.69,0-53.86
		c-56.84,0-113.28,0-169.93,0c0-25.83,0-51.37,0-77.16c57.84,0,115.58,0,173.54,0c0-5.18,0-10.12,0-15.51c-47.47,0-94.96,0-142.6,0
		c0-64.55,0-128.66,0-193.11c46.18,0,92.33,0,138.68,0c0-7.84,0-15.36,0-23.18c-55.07,0-110.23,0-165.64,0c0-24.64,0-48.97,0-73.52
		c55.18,0,110.27,0,165.7,0c0-7.7,0-15.19,0-22.93c38.79,0,77.26,0,116.03,0c0,7.53,0,15.03,0,22.69c32.33,0,64.34,0,96.55,0
		c0-12.82,0-25.52,0-38.54c-124.85,0-249.57,0-374.48,0c0-28.42,0-56.52,0-84.9c124.79,0,249.5,0,374.44,0c0-5.21,0-10.14,0-15.47
		c-89.98,0-179.95,0-270.09,0c0-67.12,0-133.86,0-200.9c90.07,0,179.97,0,270.09,0c0-5.25,0-10.2,0-15.5
		c-117.02,0-234.07,0-351.27,0c0-27.17,0-54,0-81.11c117.07,0,234.03,0,351.43,0c0-10.4,0-20.53,0-30.76c46.51,0,92.59,0,138.99,0
		c0,10.15,0,20.21,0,30.57c114.73,0,229.14,0,343.78,0c0,27.13,0,53.95,0,81.15c-114.37,0-228.85,0-343.51,0c0,5.32,0,10.27,0,15.55
		c87.46,0,174.79,0,262.34,0c0,67.07,0,133.8,0,200.85c-87.35,0-174.69,0-262.27,0c0,5.24,0,10.19,0,15.46
		c122.09,0,244.24,0,366.6,0c0,28.41,0,56.49,0,84.97c-122.21,0-244.35,0-366.67,0c0,13.08,0,25.78,0,38.63c32.17,0,64.18,0,96.4,0
		c0-7.59,0-15.01,0-22.69c38.67,0,77.14,0,115.93,0c0,7.51,0,15.01,0,22.75c54.13,0,107.94,0,162.03,0c0,24.58,0,48.91,0,73.47
		c-53.89,0-107.71,0-161.75,0c0,7.79,0,15.36,0,23.22c44.85,0,89.63,0,134.69,0c0,64.44,0,128.61,0,193.15
		c-44.88,0-89.73,0-134.75,0c0,5.33,0,10.28,0,15.53c55.26,0,110.43,0,165.77,0c0,25.84,0,51.37,0,77.22c-55.28,0-110.44,0-165.89,0
		c0,18.12,0,35.92,0,53.92c-38.69,0-77.08,0-115.85,0c0-17.82,0-35.69,0-53.85c-49.07,0-97.78,0-146.69,0c0-25.82,0-51.36,0-77.17
		c48.78,0,97.48,0,146.4,0c0-5.2,0-10.15,0-15.51c-44.93,0-89.87,0-134.95,0c0-64.54,0-128.65,0-193.17c44.97,0,89.92,0,135.02,0
		c0-7.91,0-15.42,0-23.18c-50.08,0-100.06,0-150.4,0c0-20.68,0-41.11,0-61.74c-9.22,0-18.08,0-27.21,0c0,20.46,0,40.81,0,61.51
		c-51.6,0-102.93,0-154.46,0c0,7.84,0,15.34,0,23.24c46.11,0,92.23,0,138.6,0C491.54,716.55,491.54,780.71,491.54,845.23z
		 M318.14,296.32c43.88,0,87.52,0,131.08,0c0-6.48,0-12.69,0-19.01c-43.81,0-87.36,0-131.08,0
		C318.14,283.7,318.14,289.92,318.14,296.32z M318.07,354.46c43.86,0,87.42,0,131.18,0c0-6.44,0-12.72,0-19
		c-43.86,0-87.49,0-131.18,0C318.07,341.85,318.07,348.01,318.07,354.46z M588.64,296.33c42.66,0,84.95,0,127.27,0
		c0-6.47,0-12.69,0-19c-42.52,0-84.82,0-127.27,0C588.64,283.75,588.64,289.98,588.64,296.33z M588.64,354.49
		c42.61,0,84.84,0,127.28,0c0-6.43,0-12.74,0-19.1c-42.49,0-84.81,0-127.28,0C588.64,341.78,588.64,348.01,588.64,354.49z
		 M198.25,706.25c0,6.47,0,12.69,0,19.03c12.92,0,25.68,0,38.41,0c0-6.45,0-12.67,0-19.03
		C223.84,706.25,211.22,706.25,198.25,706.25z M236.69,787.23c0-6.52,0-12.75,0-19.14c-12.85,0-25.53,0-38.38,0
		c0,6.45,0,12.74,0,19.14C211.17,787.23,223.79,787.23,236.69,787.23z M352.94,706.28c0,6.45,0,12.74,0,19.03
		c11.62,0,23.03,0,34.49,0c0-6.42,0-12.64,0-19.03C375.86,706.28,364.46,706.28,352.94,706.28z M684.95,725.34
		c0-6.55,0-12.77,0-19.02c-11.6,0-22.99,0-34.47,0c0,6.43,0,12.64,0,19.02C662.03,725.34,673.43,725.34,684.95,725.34z
		 M801.25,706.27c0,6.45,0,12.74,0,19.03c11.6,0,23,0,34.34,0c0-6.49,0-12.78,0-19.03C824.01,706.27,812.69,706.27,801.25,706.27z
		 M387.43,768.1c-11.58,0-22.98,0-34.48,0c0,6.47,0,12.76,0,19.03c11.62,0,23.03,0,34.48,0C387.43,780.7,387.43,774.48,387.43,768.1
		z M685.06,768.11c-11.65,0-23.04,0-34.49,0c0,6.48,0,12.76,0,18.99c11.63,0,23.01,0,34.49,0
		C685.06,780.73,685.06,774.58,685.06,768.11z M835.76,768.13c-11.7,0-23.09,0-34.47,0c0,6.5,0,12.79,0,18.96
		c11.64,0,23.03,0,34.47,0C835.76,780.69,835.76,774.54,835.76,768.13z"/>
</g>
</svg>
